<?xml version="1.0" encoding="UTF-8" standalone="no"?>
<!DOCTYPE svg PUBLIC "-//W3C//DTD SVG 1.1//EN" "http://www.w3.org/Graphics/SVG/1.1/DTD/svg11.dtd">
<svg width="100%" height="100%" viewBox="0 0 142 133" version="1.1" xmlns="http://www.w3.org/2000/svg" xmlns:xlink="http://www.w3.org/1999/xlink" xml:space="preserve" xmlns:serif="http://www.serif.com/" style="fill-rule:evenodd;clip-rule:evenodd;stroke-linecap:round;stroke-linejoin:round;stroke-miterlimit:1.5;">
    <g transform="matrix(1,0,0,1,-487,-353)">
        <path d="M566.061,358.87C561.907,358.492 557.724,358.492 553.571,358.87L551.513,368.264C547.532,368.835 543.63,369.816 539.878,371.188L533.089,364.018C529.29,365.638 525.667,367.6 522.272,369.876L525.498,378.976C522.354,381.338 519.498,384.017 516.98,386.966L507.278,383.94C504.851,387.125 502.76,390.523 501.033,394.086L508.677,400.454C507.214,403.974 506.169,407.634 505.559,411.368L495.545,413.298C495.141,417.194 495.141,421.117 495.545,425.013L505.559,426.943C506.169,430.677 507.214,434.337 508.677,437.857L501.033,444.225C502.76,447.788 504.851,451.186 507.278,454.371L516.98,451.345C519.498,454.294 522.354,456.973 525.498,459.335L522.272,468.435C525.667,470.711 529.29,472.673 533.089,474.293L539.878,467.123C543.63,468.495 547.532,469.476 551.513,470.047L553.571,479.441C557.724,479.819 561.907,479.819 566.061,479.441L568.118,470.047C572.099,469.476 576.002,468.495 579.754,467.123L586.543,474.293C590.342,472.673 593.965,470.711 597.36,468.435L594.134,459.335C597.277,456.973 600.134,454.294 602.652,451.345L612.354,454.371C614.78,451.186 616.872,447.788 618.599,444.225L610.954,437.857C612.417,434.337 613.463,430.677 614.072,426.943L624.087,425.013C624.491,421.117 624.491,417.194 624.087,413.298L614.072,411.368C613.463,407.634 612.417,403.974 610.954,400.454L618.599,394.086C616.872,390.523 614.78,387.125 612.354,383.94L602.652,386.966C600.134,384.017 597.277,381.338 594.134,378.976L597.36,369.876C593.965,367.6 590.342,365.638 586.543,364.018L579.754,371.188C576.002,369.816 572.099,368.835 568.118,368.264L566.061,358.87ZM559.816,407.042C566.944,407.042 572.731,412.47 572.731,419.156C572.731,425.841 566.944,431.269 559.816,431.269C552.688,431.269 546.901,425.841 546.901,419.156C546.901,412.47 552.688,407.042 559.816,407.042Z" style="fill:rgb(135,187,162);stroke:rgb(192,50,33);stroke-width:1px;"/>
    </g>
</svg>
